<svg width="56" height="57" viewBox="0 0 56 57" fill="none" xmlns="http://www.w3.org/2000/svg">
<path d="M45.7614 2.56381C44.7352 1.75101 43.5167 1.10624 42.1756 0.666328C40.8345 0.226421 39.397 0 37.9453 0C36.4937 0 35.0562 0.226421 33.7151 0.666328C32.374 1.10624 31.1555 1.75101 30.1293 2.56381L27.9995 4.24987L25.8696 2.56381C23.7967 0.922775 20.9852 0.000850606 18.0536 0.000850623C15.122 0.00085064 12.3105 0.922775 10.2375 2.56381C8.16457 4.20485 7 6.43057 7 8.75134C7 11.0721 8.16457 13.2978 10.2375 14.9389L27.9995 29L45.7614 14.9389C46.7881 14.1265 47.6026 13.1618 48.1583 12.1002C48.714 11.0385 49 9.90055 49 8.75134C49 7.60214 48.714 6.46419 48.1583 5.40251C47.6026 4.34083 46.7881 3.37623 45.7614 2.56381Z" fill="url(#paint0_radial_94_4454)"/>
<path d="M3 38.8888L3.00008 12.8046C3.00008 12.0286 3.84542 11.5483 4.51199 11.9456L28.2117 26.0686C28.5447 26.2671 28.9626 26.2552 29.2838 26.038L51.4398 11.0551C52.1039 10.606 53 11.0817 53 11.8834V38.9198C53 39.2675 52.8194 39.5902 52.523 39.7721L29.8347 53.6955C29.5281 53.8837 29.1439 53.8927 28.8289 53.719L3.5172 39.7645C3.19815 39.5886 3 39.2531 3 38.8888Z" stroke="#DDDDDD" stroke-width="6" stroke-linecap="round" stroke-linejoin="round"/>
<path d="M29 34.1873L29.0972 44.2367" stroke="#DDDDDD" stroke-width="4" stroke-linecap="round" stroke-linejoin="round"/>
<path d="M13 31.1873V18.1873L17.9075 21.1873V32.6873L15.5 30.1873L13 31.1873Z" fill="#DDDDDD" stroke="#DDDDDD" stroke-width="2" stroke-linecap="round"/>
<defs>
<radialGradient id="paint0_radial_94_4454" cx="0" cy="0" r="1" gradientUnits="userSpaceOnUse" gradientTransform="translate(28 14.5) rotate(90) scale(14.5 21)">
<stop stop-color="#7896C5"/>
<stop offset="1" stop-color="#9C56B5"/>
</radialGradient>
</defs>
</svg>
