<svg width="300" height="300" viewBox="0 0 300 300" fill="none" xmlns="http://www.w3.org/2000/svg">
<g clip-path="url(#paint0_diamond_2001_437_clip_path)" data-figma-skip-parse="true"><g transform="matrix(0.15 0.134314 -0.227778 0.238026 150 134.804)"><rect x="0" y="0" width="1113.13" height="681.937" fill="url(#paint0_diamond_2001_437)" opacity="1" shape-rendering="crispEdges"/><rect x="0" y="0" width="1113.13" height="681.937" transform="scale(1 -1)" fill="url(#paint0_diamond_2001_437)" opacity="1" shape-rendering="crispEdges"/><rect x="0" y="0" width="1113.13" height="681.937" transform="scale(-1 1)" fill="url(#paint0_diamond_2001_437)" opacity="1" shape-rendering="crispEdges"/><rect x="0" y="0" width="1113.13" height="681.937" transform="scale(-1)" fill="url(#paint0_diamond_2001_437)" opacity="1" shape-rendering="crispEdges"/></g></g><rect width="300" height="300" rx="30" data-figma-gradient-fill="{&#34;type&#34;:&#34;GRADIENT_DIAMOND&#34;,&#34;stops&#34;:[{&#34;color&#34;:{&#34;r&#34;:0.94326931238174438,&#34;g&#34;:0.65303260087966919,&#34;b&#34;:0.92392021417617798,&#34;a&#34;:1.0},&#34;position&#34;:0.0},{&#34;color&#34;:{&#34;r&#34;:0.98557692766189575,&#34;g&#34;:0.58376455307006836,&#34;b&#34;:0.59046143293380737,&#34;a&#34;:1.0},&#34;position&#34;:1.0}],&#34;stopsVar&#34;:[{&#34;color&#34;:{&#34;r&#34;:0.94326931238174438,&#34;g&#34;:0.65303260087966919,&#34;b&#34;:0.92392021417617798,&#34;a&#34;:1.0},&#34;position&#34;:0.0},{&#34;color&#34;:{&#34;r&#34;:0.98557692766189575,&#34;g&#34;:0.58376455307006836,&#34;b&#34;:0.59046143293380737,&#34;a&#34;:1.0},&#34;position&#34;:1.0}],&#34;transform&#34;:{&#34;m00&#34;:300.0,&#34;m01&#34;:-455.55630493164062,&#34;m02&#34;:227.77815246582031,&#34;m10&#34;:268.627441406250,&#34;m11&#34;:476.05105590820312,&#34;m12&#34;:-237.53533935546875},&#34;opacity&#34;:1.0,&#34;blendMode&#34;:&#34;NORMAL&#34;,&#34;visible&#34;:true}"/>
<rect x="225" y="37" width="37" height="237" rx="18.5" fill="white"/>
<rect x="251.612" y="32" width="32.2508" height="64.5017" rx="16.1254" transform="rotate(70 251.612 32)" fill="white"/>
<path d="M112.5 75C155.854 75 191 110.146 191 153.5C191 196.854 155.854 232 112.5 232C69.1456 232 34 196.854 34 153.5C34 110.146 69.1456 75 112.5 75ZM112.5 96C103.94 96 97 102.94 97 111.5V140H70.5C61.9396 140 55 146.94 55 155.5C55 164.06 61.9396 171 70.5 171H97V197.5C97 206.06 103.94 213 112.5 213C121.06 213 128 206.06 128 197.5V171H156.5C165.06 171 172 164.06 172 155.5C172 146.94 165.06 140 156.5 140H128V111.5C128 102.94 121.06 96 112.5 96Z" fill="white"/>
<defs>
<clipPath id="paint0_diamond_2001_437_clip_path"><rect width="300" height="300" rx="30"/></clipPath><linearGradient id="paint0_diamond_2001_437" x1="0" y1="0" x2="500" y2="500" gradientUnits="userSpaceOnUse">
<stop stop-color="#F1A7EC"/>
<stop offset="1" stop-color="#FB9597"/>
</linearGradient>
</defs>
</svg>
